<svg xmlns="http://www.w3.org/2000/svg" viewBox="0 0 1925.58 1084.53"><defs><style>.a{isolation:isolate;}.b{fill:#020000;}.c{fill:#fff;mix-blend-mode:difference;}</style></defs><g class="a"><path class="b" d="M1368.52,66.06A348.88,348.88,0,0,1,1573.15.14H954.47A348.88,348.88,0,0,1,1159.1,66.06Z" transform="translate(0)"/><path class="b" d="M1923.19,240.49h0a174.78,174.78,0,0,1-5.71,44.41,351.15,351.15,0,0,1,6.12,61V.14H1573.15a348.9,348.9,0,0,1,209,69.13A174.48,174.48,0,0,1,1923.19,240.49Z" transform="translate(0)"/><path class="b" d="M1866.81,542a348.74,348.74,0,0,1,56.79,186.66V414.84l-6.14,1.62A348.58,348.58,0,0,1,1866.81,542Z" transform="translate(0)"/><path class="b" d="M.09,350.63a352.47,352.47,0,0,1,6-64.76,174.57,174.57,0,0,1-6-45.38h0A174.48,174.48,0,0,1,141.71,69.15,349,349,0,0,1,350.58.14H0V414.83H6A351.8,351.8,0,0,1,.09,350.63Z" transform="translate(0)"/><path class="b" d="M1600.37,1080.83l321.24,3.7,4-344.53C1921.09,921.55,1778.89,1068.17,1600.37,1080.83Z" transform="translate(0)"/><path class="b" d="M1250.77,1016.18h-90.85a350.57,350.57,0,0,1-410.9,0H687.24a173.67,173.67,0,0,1-95.5-28.45,349.2,349.2,0,0,1-212,95H1544A349.19,349.19,0,0,1,1337.68,993,173.62,173.62,0,0,1,1250.77,1016.18Z" transform="translate(0)"/><path class="b" d="M805.57,414.83h297.8a351.95,351.95,0,0,0-239.7-21.23,173.16,173.16,0,0,1-52.07,18.47Q808.57,413.42,805.57,414.83Z" transform="translate(0)"/><path class="b" d="M694.84,667.31a348,348,0,0,0-23.22-74.74L637,583.42a348.28,348.28,0,0,0-30.15,103.47,173.71,173.71,0,0,1,80.35-19.58Z" transform="translate(0)"/><path class="b" d="M56.92,542c62.56,95.79,170.72,159.09,293.66,159.09a349.67,349.67,0,0,0,266.58-123L141.31,452.23A352.62,352.62,0,0,0,56.92,542Z" transform="translate(0)"/><path class="b" d="M1228.89,667.31h21.88a174.32,174.32,0,0,1,49.44,7.13,347.73,347.73,0,0,0-27-88.23l-20.67,5.45A347.73,347.73,0,0,0,1228.89,667.31Z" transform="translate(0)"/><path class="b" d="M1782.23,452.09,1306.05,577.55a349.68,349.68,0,0,0,267.1,123.56c122.94,0,231.1-63.3,293.66-159.09A352.42,352.42,0,0,0,1782.23,452.09Z" transform="translate(0)"/><path class="b" d="M658.56,162.73h34.16v23.46H660.17a349,349,0,0,1,40.89,164.44,352.68,352.68,0,0,1-5.87,64.2H785.5a175.13,175.13,0,0,0,26.1-2.76,348,348,0,0,1,52.07-18.47,174.41,174.41,0,0,0,90.8-153.11h0A174.43,174.43,0,0,0,780,66.06h-30.2A352.29,352.29,0,0,0,658.56,162.73Zm147.23,88.08c-28.1-6.19-53.11-16.37-53.11-46,0-33,30.1-44.7,58-44.7,33,0,58.87,12.83,62.41,49.35L845,214.3c-.88-21.47-13.5-32.09-34.52-32.09-15.71,0-29.66,6.64-29.66,21.24,0,14.17,17.27,18.59,38.73,22.13,32.53,5.31,58.65,13.72,58.65,46.92,0,37.4-32.09,47.8-64.18,47.8-34.74,0-65.06-16.82-65.51-53.56L777,263.65c0,22.79,15.71,34.3,37.18,34.3,19.7,0,35.63-6.2,35.63-24.35C849.83,255.24,829,255.9,805.79,250.81Zm-98.7-88.08h26.34v28.11c0,16.6-10.84,27.44-26.11,30.32V208.1c6.86-2,11.5-7.52,11.73-17.26h-12Z" transform="translate(0)"/><path class="b" d="M512.58,216.29c-2.88-8.19-6.64-18.81-9.07-28.11h-.22c-2.88,10.85-5.54,18.37-8.86,28.11l-12.83,37.4h44Z" transform="translate(0)"/><path class="b" d="M169.07,414.83h35.21a351.33,351.33,0,0,1,292.6,0h113a353.11,353.11,0,0,1,4.74-150.12V186.19H564.36V162.73h82.13a352.32,352.32,0,0,0-91.28-96.67H174.53a175.67,175.67,0,0,0-32.82,3.09A350.47,350.47,0,0,0,6.07,285.87,174.49,174.49,0,0,0,169.07,414.83Zm320.5-252.1h28.76l59.09,154.91H548.21l-14.39-40.72H473.41l-13.94,40.72H430Zm-199.39,0h27.66v64.84h67.72V162.73h27.66V317.64H385.56V251.25H317.84v66.39H290.18Zm-189.2,0,17.48,85.43c4.42,21.9,5.09,26.77,7.08,38.72H126c2.88-12.17,6-26.33,9.3-38.72l21.9-85.43h28.55l22.57,85.43c3.77,14.6,6.42,26.33,8.86,38.72h.44c2.21-12.17,4-23.9,7.08-38.72l17-85.43h29L232.43,317.64H202.55L180.64,234c-3.54-12.83-6.86-26.77-9.29-39.17h-.44c-2.44,12.84-5.09,25.45-8.64,39.62l-21.9,83.2h-30.1L72,162.73Z" transform="translate(0)"/><path class="b" d="M1222.67,350.63a351,351,0,0,1,12.71-93.87,124.72,124.72,0,0,1-1.07-16.57c0-26.45,8.65-48.53,24.92-62.77A352.18,352.18,0,0,0,1159.1,66.06h-15.85A174.42,174.42,0,0,0,968.82,240.49h0a174.42,174.42,0,0,0,169,174.34h90.75A352.68,352.68,0,0,1,1222.67,350.63Zm-7.83-33H1191.6l-1.77-20.58c-9.52,14.83-27,23.24-48,23.24-46,0-73.25-28.55-73.25-80.11,0-47.14,27.44-80.11,76.35-80.11,34.08,0,59.75,17,68.16,49.13l-28.77,5.53c-4.65-17.93-16.6-32.31-39.39-32.31-16.16,0-28.77,4.87-36.52,15.71-6.64,9.3-10.4,23.24-10.4,42.05,0,19,3.1,32.53,10,42.05,7.52,10.84,19.92,15.71,37.84,15.71,24.79,0,40.28-13.94,42-40.5h-45.59V233.77h72.59Z" transform="translate(0)"/><path class="b" d="M1478.61,298c16.16,0,28.11-5.09,35.41-15.49,7.53-10.18,11.07-25,11.07-42.27,0-17.7-4-32.53-11.07-42.27-7.52-10.4-19.25-15.49-34.52-15.49-16.6,0-29,5.75-36.07,14.83s-11.29,25.45-11.29,42.93c0,18.81,4.21,33.64,10.4,42.05C1450.51,292.86,1463.57,298,1478.61,298Z" transform="translate(0)"/><path class="b" d="M1345.62,282.46c7.52-10.18,11.07-25,11.07-42.27,0-17.7-4-32.53-11.07-42.27-7.52-10.4-19.25-15.49-34.52-15.49-16.6,0-29,5.75-36.07,14.83A34.73,34.73,0,0,0,1272,202a347.73,347.73,0,0,1,29,95.25,61.27,61.27,0,0,0,9.3.71C1326.37,298,1338.32,292.86,1345.62,282.46Z" transform="translate(0)"/><path class="b" d="M1274.2,167.6c10.2-4.86,22.25-7.52,36-7.52,48.25,0,75.91,33.41,75.91,80.11,0,47.36-27.66,80.11-75.91,80.11-2.24,0-4.42-.08-6.57-.21q1.3,15.11,1.31,30.54a352.68,352.68,0,0,1-5.87,64.2h127.77a351.33,351.33,0,0,1,292.6,0h34.77A174.51,174.51,0,0,0,1917.48,284.9,350.48,350.48,0,0,0,1782.17,69.27a175.07,175.07,0,0,0-33.41-3.21H1368.52A352.19,352.19,0,0,0,1274.2,167.6Zm514.66,150h-28.54V287.77h28.54Zm-12.39-157.56c30.1,0,47.8,16.82,47.8,43.82,0,19-9.07,27.88-21.47,38.5-9.29,8-16.37,14.39-16.37,26.34v6.19h-24.56V264.31c0-14.61,6.19-22.79,18.58-34.08,8.63-8,16.6-14.61,16.6-26.11,0-14.17-6.86-22.35-21.46-22.35-19.7,0-24.79,14.16-24.35,29.65l-26.77-4.2C1725.13,181.77,1740.84,160.08,1776.47,160.08Zm-197.17,2.65h55.1c48.69,0,76.13,30.76,76.13,77.46,0,48.46-28.77,77.45-76.13,77.45h-55.1Zm-100.69-2.65c48.25,0,75.91,33.41,75.91,80.11,0,47.36-27.66,80.11-75.91,80.11-48,0-75.9-28.55-75.9-80.11C1402.71,193.27,1429.93,160.08,1478.61,160.08Z" transform="translate(0)"/><path class="b" d="M1670.92,280c7.3-10,10.18-22.79,10.18-39.83,0-17.26-2.22-28.55-9.74-39.61s-21.69-15.49-39.17-15.49H1607v110.2h25.23C1650.33,295.29,1663.39,290,1670.92,280Z" transform="translate(0)"/><path class="b" d="M644.88,186.19h15.29q-3.67-6.9-7.65-13.63Q648.56,179.28,644.88,186.19Z" transform="translate(0)"/><path class="c" d="M642.26,317.64V191.2a347.66,347.66,0,0,0-27.66,73.51v52.93Z" transform="translate(0)"/><path class="b" d="M911,787.38c-10.4,0-17.27,3.76-21.69,11.28-5.53,9.08-7.3,24.12-7.3,44.93,0,38.28,5.75,56.87,29,56.87,9.07,0,15.49-2.88,19.91-8.63,7.31-9.07,9.52-25.45,9.52-48.24C940.47,806.63,934.94,787.38,911,787.38Z" transform="translate(0)"/><path class="b" d="M1250.76,919.49h-93.21c2-37.18,20.14-55.32,45.15-71,13.19-8.33,26.1-15.3,31.06-27.21q-3.88-15.09-6.46-30.68c-3.3-2.19-7.57-3.41-12.87-3.41-21,0-24.13,17-23.91,30.77l-27.44-4.21c-.22-23.46,13.28-48.46,52.23-48.46a68,68,0,0,1,8.84.57q-1.47-16-1.48-32.41a352,352,0,0,1,6.22-66.1H1104.81a351.25,351.25,0,0,1-300.68,0H694.84A354.64,354.64,0,0,1,698,779.85c9.13-9.32,21.45-14.6,37.1-14.6,38.95,0,57.54,32.53,57.54,78.34,0,46.47-18.59,78.56-57.54,78.56-33.94,0-53.29-22-56.59-64.81a348.78,348.78,0,0,1-25.64,53.53A352.22,352.22,0,0,0,749,1016.18h410.9A352.39,352.39,0,0,0,1250.76,919.49Zm-413.19,0H808.8V889.62h28.77ZM911,922.15c-37.4,0-57.1-26.78-57.1-78.56,0-46,18.37-78.34,57.1-78.34,38.94,0,57.53,32.53,57.53,78.34C968.57,890.06,950,922.15,911,922.15Zm127.24,0c-34.3,0-52.67-20.81-52.89-49.57l26.55-4c-.22,19.7,9.08,31.87,26.34,31.87,16.6,0,26.77-8.63,26.77-25,0-17.92-13-23.68-25.67-23.68h-13.94v-23h11.29c10.84,0,22.57-5.31,22.57-20.8,0-12.84-7.3-21.25-21-21.25-19.92,0-24.12,16.38-23.68,28.33l-27.22-4c1.33-28.1,21.69-45.8,50.9-45.8,26.77,0,48,14.38,48,42.26,0,13.28-7.08,24.35-19,30.54,16.37,5.54,24.78,20.58,24.78,37.18C1092.05,906.21,1069.26,922.15,1038.28,922.15Zm102.45-2.66H1112V889.62h28.76Z" transform="translate(0)"/><path class="b" d="M734.86,900.46c9.07,0,15.5-2.81,19.95-8.54,7.34-9,9.63-25.41,9.73-48.2.17-37-5.28-56.24-29.18-56.34-10.4,0-17.28,3.68-21.74,11.19-5.57,9-7.41,24.08-7.5,44.89C706,881.74,711.62,900.35,734.86,900.46Z" transform="translate(0)"/><path class="b" d="M647.64,919.49H626V854.75a347,347,0,0,1-11.86-38.43,60.41,60.41,0,0,1-18.9,2.7,59,59,0,0,1-6.42-.44v-23c8,0,14.73-.9,20.37-2.79a354.1,354.1,0,0,1-2.31-105.88,174.42,174.42,0,0,0-94.08,154.86h0a174.28,174.28,0,0,0,78.93,146A352.35,352.35,0,0,0,647.64,919.49Z" transform="translate(0)"/><path class="b" d="M1299.89,791.86c10.11-4.16,16.11-12,18.32-24h22.13V919.49h-26.11V809.28c-4.78,4.93-11.92,7.71-19.92,9a348.46,348.46,0,0,1-30.82,79.48A352,352,0,0,0,1337.68,993a174.36,174.36,0,0,0,87.52-151.27h0a174.51,174.51,0,0,0-125-167.32,354.33,354.33,0,0,1-.32,117.43Z" transform="translate(0)"/><path class="b" d="M652.13,767.9H630c-2.39,13-9.19,21-20.8,24.87q2.09,11.93,4.95,23.55a28.89,28.89,0,0,0,11.86-7v45.47a348.75,348.75,0,0,0,26.12,54.84Z" transform="translate(0)"/><path class="b" d="M1263.33,919.49V898q-5.91,11-12.57,21.5Z" transform="translate(0)"/><path class="b" d="M1235.89,810.17a28.26,28.26,0,0,1-2.13,11.07q3.9,15.1,9.09,29.67c12.37-10.18,20.26-21.92,20.26-40.08,0-25.72-15-41.88-39-45q1.14,12.49,3.15,24.74C1233.1,794.4,1235.89,801.29,1235.89,810.17Z" transform="translate(0)"/><path class="b" d="M1193.12,607.31l59.4-15.65q5.37-12.13,11.61-23.75-7.23-13.62-15.61-26.5A352.39,352.39,0,0,1,1193.12,607.31Z" transform="translate(0)"/><path class="b" d="M660.42,541.41q-4.27,6.57-8.25,13.34a350.19,350.19,0,0,1,19.45,37.82l39.75,10.52A351.45,351.45,0,0,1,660.42,541.41Z" transform="translate(0)"/><path class="b" d="M695.17,414.93a348.07,348.07,0,0,1-42.65,113.76q3.83,6.46,7.9,12.72A352,352,0,0,1,805.57,414.83H785.5c-1.82.06-3.64.1-5.47.1Z" transform="translate(0)"/><path class="b" d="M1248.52,541.41q8.18-12.57,15.29-25.88a347.92,347.92,0,0,1-35.25-100.6h-85.31c-1.83,0-3.65,0-5.46-.1h-34.42A352,352,0,0,1,1248.52,541.41Z" transform="translate(0)"/><path class="b" d="M609.87,414.93H497.08A351.87,351.87,0,0,1,644.23,542q4.29-6.57,8.29-13.33A348.29,348.29,0,0,1,609.87,414.93Z" transform="translate(0)"/><path class="b" d="M204.08,414.93H174.53c-1.83,0-3.65,0-5.46-.1H6c.1.56.2,1.11.31,1.66l135,35.74A350.15,350.15,0,0,1,204.08,414.93Z" transform="translate(0)"/><path class="b" d="M1719.65,414.93a350,350,0,0,1,62.58,37.16l135.23-35.63.3-1.63H1754.22c-1.81.06-3.63.1-5.46.1Z" transform="translate(0)"/><path class="b" d="M1263.81,515.53q7.28,13.61,15.68,26.49a352,352,0,0,1,147.16-127.09H1299.06A347.92,347.92,0,0,1,1263.81,515.53Z" transform="translate(0)"/><path class="b" d="M644.23,542a350.33,350.33,0,0,1-27.07,36.14L637,583.42q6.91-14.71,15.13-28.67Q648.33,548.29,644.23,542Z" transform="translate(0)"/><path class="c" d="M735.11,922.15c38.95,0,57.54-32.09,57.54-78.56,0-45.81-18.59-78.34-57.54-78.34-15.65,0-28,5.28-37.1,14.6a348.17,348.17,0,0,1-19.49,77.49C681.82,900.1,701.17,922.15,735.11,922.15ZM713.42,798.66c4.43-7.52,11.29-11.28,21.69-11.28,23.9,0,29.43,19.25,29.43,56.21,0,22.79-2.21,39.17-9.52,48.24-4.42,5.75-10.84,8.63-19.91,8.63-23.24,0-29-18.59-29-56.87C706.12,822.78,707.89,807.74,713.42,798.66Z" transform="translate(0)"/><path class="b" d="M749.83,66.06A348.91,348.91,0,0,1,954.47.14H350.58A348.88,348.88,0,0,1,555.21,66.06Z" transform="translate(0)"/><path class="b" d="M.09,733.41A348.88,348.88,0,0,1,56.92,542,348.31,348.31,0,0,1,6.28,416.49L0,414.83v667.86H321.39C141.48,1067.85.09,917.15.09,733.41Z" transform="translate(0)"/><path class="b" d="M1264.13,567.91q4.78,9,9.06,18.3l32.86-8.66A350.76,350.76,0,0,1,1279.49,542Q1271.28,554.61,1264.13,567.91Z" transform="translate(0)"/><path class="b" d="M711.37,603.09a351.12,351.12,0,0,0,92.76,64.22H954Z" transform="translate(0)"/><path class="b" d="M965.37,667.31h139.44a351.21,351.21,0,0,0,88.31-60Z" transform="translate(0)"/><path class="b" d="M1189.86,896.92h73.2a349.94,349.94,0,0,1-20.21-46,177.64,177.64,0,0,1-19.13,13.26C1207.12,874.35,1193.62,882.53,1189.86,896.92Z" transform="translate(0)"/><path class="c" d="M642.26,317.64V191.2a347.66,347.66,0,0,0-27.66,73.51v52.93Z" transform="translate(0)"/><path class="b" d="M658.56,162.73H646.49c2.06,3.24,4.08,6.52,6,9.83Q655.46,167.6,658.56,162.73Z" transform="translate(0)"/><path class="b" d="M1274.2,167.6a65.56,65.56,0,0,0-15,9.82q2.34,4.13,4.58,8.31Q1268.74,176.49,1274.2,167.6Z" transform="translate(0)"/><path class="b" d="M1303.64,320.09q-1-11.54-2.73-22.85c-11.07-1.72-20.5-6.64-26.77-15s-10.4-23.24-10.4-42.05c0-14.78,3-28.75,8.22-38.2q-3.87-8.25-8.15-16.26a348.16,348.16,0,0,0-28.43,71C1240.59,295.66,1264.88,317.86,1303.64,320.09Z" transform="translate(0)"/><path class="c" d="M701.05,350.59a348.89,348.89,0,0,0-40.89-164.43H644.87q-1.33,2.49-2.62,5V317.61H614.59V264.67a353.15,353.15,0,0,0-4.74,150.13h85.33A352.88,352.88,0,0,0,701.05,350.59Z" transform="translate(0)"/><path class="c" d="M652.88,910.87l-.75,1.27v7.35h-4.49a352.35,352.35,0,0,1-55.9,68.24,173.67,173.67,0,0,0,95.5,28.45H749A352.22,352.22,0,0,1,652.88,910.87Z" transform="translate(0)"/><path class="b" d="M1235.89,810.17a28.26,28.26,0,0,1-2.13,11.07q3.9,15.1,9.09,29.67c12.37-10.18,20.26-21.92,20.26-40.08,0-25.72-15-41.88-39-45q1.14,12.49,3.15,24.74C1233.1,794.4,1235.89,801.29,1235.89,810.17Z" transform="translate(0)"/><path class="c" d="M1478.61,320.3c48.25,0,75.91-32.75,75.91-80.11,0-46.7-27.66-80.11-75.91-80.11-48.68,0-75.9,33.19-75.9,80.11C1402.71,291.75,1430.59,320.3,1478.61,320.3Zm-35.18-123c7.08-9.08,19.47-14.83,36.07-14.83,15.27,0,27,5.09,34.52,15.49,7.08,9.74,11.07,24.57,11.07,42.27,0,17.26-3.54,32.09-11.07,42.27-7.3,10.4-19.25,15.49-35.41,15.49-15,0-28.1-5.09-36.07-15.71-6.19-8.41-10.4-23.24-10.4-42.05C1432.14,222.71,1436.35,206.33,1443.43,197.26Z" transform="translate(0)"/><path class="c" d="M1710.53,240.19c0-46.7-27.44-77.46-76.13-77.46h-55.1V317.64h55.1C1681.76,317.64,1710.53,288.65,1710.53,240.19ZM1607,295.29V185.09h25.23c17.48,0,31.64,4.42,39.17,15.49s9.74,22.35,9.74,39.61c0,17-2.88,29.87-10.18,39.83-7.53,10-20.59,15.27-38.73,15.27Z" transform="translate(0)"/><path class="c" d="M660.42,541.41a351.45,351.45,0,0,0,51,61.68L954,667.31h11.33l227.75-60a352.39,352.39,0,0,0,55.4-65.9,352,352,0,0,0-145.15-126.58H805.57A352,352,0,0,0,660.42,541.41Z" transform="translate(0)"/><path class="c" d="M652.17,554.75Q644,568.68,637,583.42l34.58,9.15A350.19,350.19,0,0,0,652.17,554.75Z" transform="translate(0)"/><path class="c" d="M497.08,414.93h-293a350.15,350.15,0,0,0-62.77,37.3L617.16,578.16A350.33,350.33,0,0,0,644.23,542,351.87,351.87,0,0,0,497.08,414.93Z" transform="translate(0)"/><path class="c" d="M512.81,841.75h0a174.42,174.42,0,0,1,94.08-154.86A348.28,348.28,0,0,1,637,583.42l-19.88-5.26a349.67,349.67,0,0,1-266.58,123c-122.94,0-231.1-63.3-293.66-159.09A348.88,348.88,0,0,0,.09,733.41c0,183.74,141.39,334.44,321.3,349.28h58.38a349.2,349.2,0,0,0,212-95A174.28,174.28,0,0,1,512.81,841.75Z" transform="translate(0)"/><path class="c" d="M1866.81,542c-62.56,95.79-170.72,159.09-293.66,159.09a349.68,349.68,0,0,1-267.1-123.56l-32.86,8.66a347.78,347.78,0,0,1,27,88.22,174.51,174.51,0,0,1,125,167.32h0A174.36,174.36,0,0,1,1337.68,993,349.19,349.19,0,0,0,1544,1082.69h58.38c178.37-14.71,318.86-163,321.26-344.55v-9.46A348.74,348.74,0,0,0,1866.81,542Z" transform="translate(0)"/><path class="c" d="M1782.23,452.09A352.42,352.42,0,0,1,1866.81,542a348.58,348.58,0,0,0,50.65-125.56Z" transform="translate(0)"/><path class="c" d="M1748.6,66a174.84,174.84,0,0,1,33.38,3.1,350,350,0,0,0-413.46-3.07Z" transform="translate(0)"/><path class="c" d="M960.62,668.54,955,667H805.06a351.23,351.23,0,0,0,300.67,0H966.3Z" transform="translate(0)"/><path class="c" d="M804.13,667.31l-109.34-.39a335.81,335.81,0,0,0-23.17-74.35l39.75,10.52C737.43,627.33,771.62,651.86,804.13,667.31Z" transform="translate(0)"/><path class="c" d="M588.83,795.56v23a59,59,0,0,0,6.42.44,60.41,60.41,0,0,0,18.9-2.7q-2.86-11.62-4.95-23.55C603.56,794.66,596.79,795.56,588.83,795.56Z" transform="translate(0)"/><path class="c" d="M626,854.75v64.74h21.63q2.28-3.65,4.49-7.35v-2.55A348.75,348.75,0,0,1,626,854.75Z" transform="translate(0)"/><path class="c" d="M1259.19,177.44a65,65,0,0,1,15-9.81,352.1,352.1,0,0,1,94.32-101.55H1159.06A352.18,352.18,0,0,1,1259.19,177.44Z" transform="translate(0)"/><path class="c" d="M350.69,383a349.22,349.22,0,0,0-146.3,31.91H497A349.19,349.19,0,0,0,350.69,383Z" transform="translate(0)"/><path class="c" d="M1228.89,667.31a352,352,0,0,0-6.22,66.1q0,16.4,1.48,32.41c23.91,3.13,39,19.29,39,45,0,18.16-7.89,29.9-20.26,40.08a349.94,349.94,0,0,0,20.21,46h.27v.5l.16.29a348.46,348.46,0,0,0,30.82-79.48,71.29,71.29,0,0,1-10.84.79,58.69,58.69,0,0,1-6.42-.44v-23c9.15,0,16.74-1.19,22.84-3.7a354.33,354.33,0,0,0,.32-117.43,174.57,174.57,0,0,0-49.44-7.12Z" transform="translate(0)"/><path class="c" d="M1263.49,897.71c-.06.09-.11.19-.16.28v21.5h-12.57a352.39,352.39,0,0,1-90.84,96.69h90.85A173.62,173.62,0,0,0,1337.68,993,352,352,0,0,1,1263.49,897.71Z" transform="translate(0)"/><path class="c" d="M174.53,66.06H555.21a350.58,350.58,0,0,0-413.5,3.09A175.67,175.67,0,0,1,174.53,66.06Z" transform="translate(0)"/><path class="c" d="M141.79,452.38a352.42,352.42,0,0,0-84.58,89.93A348.48,348.48,0,0,1,6.56,416.75Z" transform="translate(0)"/><path class="c" d="M609.2,792.77c11.61-3.87,18.41-11.91,20.8-24.87h22.13V909.59l.75,1.28a348.78,348.78,0,0,0,25.64-53.53q-.51-6.55-.51-13.75c0-27.44,6.53-50,20-63.74a354.64,354.64,0,0,0-3.17-112.54h-7.6a173.71,173.71,0,0,0-80.35,19.58,354.1,354.1,0,0,0,2.31,105.88Z" transform="translate(0)"/><path class="c" d="M646.49,162.73h12.07a352.29,352.29,0,0,1,91.27-96.67H555.21A352.32,352.32,0,0,1,646.49,162.73Z" transform="translate(0)"/><path class="c" d="M1754.22,414.83h163.54a350.92,350.92,0,0,0,5.84-59.48V345.9a351.15,351.15,0,0,0-6.12-61A174.51,174.51,0,0,1,1754.22,414.83Z" transform="translate(0)"/><path class="c" d="M1104.81,667.31h124.08a347.91,347.91,0,0,1,23.63-75.65l-59.4,15.65A351.21,351.21,0,0,1,1104.81,667.31Z" transform="translate(0)"/><path class="c" d="M1252.52,591.66l20.67-5.45q-4.28-9.3-9.06-18.3Q1257.89,579.52,1252.52,591.66Z" transform="translate(0)"/><path class="c" d="M1228.56,414.93a347.92,347.92,0,0,0,35.25,100.6,347.92,347.92,0,0,0,35.25-100.6Z" transform="translate(0)"/><path class="c" d="M814.2,298c-21.47,0-37.18-11.51-37.18-34.3l-28.55,3.09c.45,36.74,30.77,53.56,65.51,53.56,32.09,0,64.18-10.4,64.18-47.8,0-33.2-26.12-41.61-58.65-46.92-21.46-3.54-38.73-8-38.73-22.13,0-14.6,14-21.24,29.66-21.24,21,0,33.64,10.62,34.52,32.09l28.11-4.87c-3.54-36.52-29.44-49.35-62.41-49.35-27.88,0-58,11.73-58,44.7,0,29.66,25,39.84,53.11,46,23.24,5.09,44,4.43,44,22.79C849.83,291.75,833.9,298,814.2,298Z" transform="translate(0)"/><path class="c" d="M1142.25,257.45h45.59c-1.77,26.56-17.26,40.5-42,40.5-17.92,0-30.32-4.87-37.84-15.71-6.86-9.52-10-23-10-42.05,0-18.81,3.76-32.75,10.4-42.05,7.75-10.84,20.36-15.71,36.52-15.71,22.79,0,34.74,14.38,39.39,32.31l28.77-5.53c-8.41-32.09-34.08-49.13-68.16-49.13-48.91,0-76.35,33-76.35,80.11,0,51.56,27.22,80.11,73.25,80.11,21,0,38.5-8.41,48-23.24l1.77,20.58h23.24V233.77h-72.59Z" transform="translate(0)"/><path class="c" d="M1775.59,181.77c14.6,0,21.46,8.18,21.46,22.35,0,11.5-8,18.14-16.6,26.11-12.39,11.29-18.58,19.47-18.58,34.08v10.62h24.56v-6.19c0-11.95,7.08-18.37,16.37-26.34,12.4-10.62,21.47-19.47,21.47-38.5,0-27-17.7-43.82-47.8-43.82-35.63,0-51.34,21.69-52,47.14l26.77,4.2C1750.8,195.93,1755.89,181.77,1775.59,181.77Z" transform="translate(0)"/><rect class="c" x="1760.32" y="287.77" width="28.55" height="29.88"/><rect class="c" x="808.8" y="889.62" width="28.77" height="29.88"/><rect class="c" x="1112.34" y="889.62" width="28.77" height="29.88"/><path class="c" d="M1067.27,838.05c12-6.19,19-17.26,19-30.54,0-27.88-21.25-42.26-48-42.26-29.21,0-49.57,17.7-50.9,45.8l27.22,4c-.44-11.95,3.76-28.33,23.68-28.33,13.72,0,21,8.41,21,21.25,0,15.49-11.73,20.8-22.57,20.8h-11.29v23h13.94c12.62,0,25.67,5.76,25.67,23.68,0,16.38-10.17,25-26.77,25-17.26,0-26.56-12.17-26.34-31.87l-26.55,4c.22,28.76,18.59,49.57,52.89,49.57,31,0,53.77-15.94,53.77-46.92C1092.05,858.63,1083.64,843.59,1067.27,838.05Z" transform="translate(0)"/><path class="c" d="M1202.7,848.45c-25,15.72-43.16,33.86-45.15,71h93.21q6.66-10.5,12.57-21.5v-.57l-.27-.5h-73.2c3.76-14.39,17.26-22.57,33.86-32.75a177.64,177.64,0,0,0,19.13-13.26q-5.17-14.55-9.09-29.67C1228.8,833.15,1215.89,840.12,1202.7,848.45Z" transform="translate(0)"/><path class="c" d="M1163.08,813.71l27.44,4.21c-.22-13.73,2.88-30.77,23.91-30.77,5.3,0,9.57,1.22,12.87,3.41q-2-12.24-3.15-24.74a68,68,0,0,0-8.84-.57C1176.36,765.25,1162.86,790.25,1163.08,813.71Z" transform="translate(0)"/><path class="c" d="M141.71,69.15A174.48,174.48,0,0,0,.09,240.49h0a174.57,174.57,0,0,0,6,45.38A350.47,350.47,0,0,1,141.71,69.15Z" transform="translate(0)"/><path class="c" d="M1917.48,284.9a174.78,174.78,0,0,0,5.71-44.41h0a174.48,174.48,0,0,0-141-171.22A350.48,350.48,0,0,1,1917.48,284.9Z" transform="translate(0)"/><path class="c" d="M6.07,285.87a353.53,353.53,0,0,0-.1,129h163.1A174.49,174.49,0,0,1,6.07,285.87Z" transform="translate(0)"/><path class="c" d="M954.47,1082.69a348.89,348.89,0,0,0,205.45-66.51H749A348.84,348.84,0,0,0,954.47,1082.69Z" transform="translate(0)"/><path class="c" d="M863.41,393.77a347.9,347.9,0,0,0-52.06,18.47A173.19,173.19,0,0,0,863.41,393.77Z" transform="translate(0)"/><path class="c" d="M1573.15,382.92a349.22,349.22,0,0,0-146.3,31.91h292.6A349.22,349.22,0,0,0,1573.15,382.92Z" transform="translate(0)"/><path class="c" d="M707.32,208.1v13.06c15.27-2.88,26.11-13.72,26.11-30.32V162.73H707.09v28.11h12C718.82,200.58,714.18,206.11,707.32,208.1Z" transform="translate(0)"/><path class="c" d="M652.52,528.69q-4,6.76-8.29,13.33,4.11,6.27,7.94,12.73,4-6.76,8.25-13.34Q656.34,535.14,652.52,528.69Z" transform="translate(0)"/><path class="c" d="M1259.23,177.42c-16.27,14.24-24.92,36.32-24.92,62.77a124.72,124.72,0,0,0,1.07,16.57,348.16,348.16,0,0,1,28.43-71Q1261.57,181.55,1259.23,177.42Z" transform="translate(0)"/><path class="c" d="M1272,202a34.73,34.73,0,0,1,3.07-4.73c7.08-9.08,19.47-14.83,36.07-14.83,15.27,0,27,5.09,34.52,15.49,7.08,9.74,11.07,24.57,11.07,42.27,0,17.26-3.55,32.09-11.07,42.27-7.3,10.4-19.25,15.49-35.41,15.49a61.27,61.27,0,0,1-9.3-.71q1.74,11.31,2.73,22.85c2.15.13,4.33.21,6.57.21,48.25,0,75.91-32.75,75.91-80.11,0-46.7-27.66-80.11-75.91-80.11-13.76,0-25.81,2.66-36,7.52q-5.46,8.9-10.39,18.13Q1268.09,193.74,1272,202Z" transform="translate(0)"/><path class="c" d="M779.86,66.2A174.43,174.43,0,0,1,954.29,240.64h0a174.39,174.39,0,0,1-90.8,153.11A351.78,351.78,0,0,1,1103.19,415h34.43a174.44,174.44,0,0,1-169-174.34h0A174.44,174.44,0,0,1,1143.08,66.2h15.85a350.63,350.63,0,0,0-409.27,0Z" transform="translate(0)"/><path class="c" d="M1719.65,414.93h-293A352,352,0,0,0,1279.49,542a350.76,350.76,0,0,0,26.56,35.53l476.18-125.46A350,350,0,0,0,1719.65,414.93Z" transform="translate(0)"/><path class="c" d="M911,765.25c-38.73,0-57.1,32.31-57.1,78.34,0,51.78,19.7,78.56,57.1,78.56,38.94,0,57.53-32.09,57.53-78.56C968.57,797.78,950,765.25,911,765.25ZM931,891.83c-4.42,5.75-10.84,8.63-19.91,8.63-23.24,0-29-18.59-29-56.87,0-20.81,1.77-35.85,7.3-44.93,4.42-7.52,11.29-11.28,21.69-11.28,23.9,0,29.43,19.25,29.43,56.21C940.47,866.38,938.26,882.76,931,891.83Z" transform="translate(0)"/><path class="c" d="M1248.52,541.41q8.36,12.87,15.61,26.5,7.14-13.3,15.36-25.89-8.4-12.87-15.68-26.49Q1256.7,528.82,1248.52,541.41Z" transform="translate(0)"/><path class="b" d="M678,843.59q0,7.2.51,13.75A348.17,348.17,0,0,0,698,779.85C684.54,793.6,678,816.15,678,843.59Z" transform="translate(0)"/><path class="c" d="M610,414.85A348.1,348.1,0,0,0,652.6,528.62a347.9,347.9,0,0,0,42.65-113.77Z" transform="translate(0)"/><path class="c" d="M1305,350.48q0-15.42-1.31-30.53c-38.76-2.23-63.05-24.43-68.26-63.33a353.4,353.4,0,0,0-6.84,158.07h70.54A352.71,352.71,0,0,0,1305,350.48Z" transform="translate(0)"/><path class="c" d="M1263.74,240.05c0,18.81,4.2,33.64,10.4,42s15.7,13.29,26.77,15a347.9,347.9,0,0,0-29-95.26C1266.75,211.3,1263.74,225.27,1263.74,240.05Z" transform="translate(0)"/><path class="c" d="M660.17,186.05h32.55V162.59H658.56q-3.1,4.86-6,9.83Q656.49,179.14,660.17,186.05Z" transform="translate(0)"/><path class="c" d="M642.26,186.05h2.62q3.68-6.9,7.64-13.63c-1.95-3.31-4-6.59-6-9.83H564.36v23.46H614.6v78.52a347.66,347.66,0,0,1,27.66-73.51Z" transform="translate(0)"/><path class="c" d="M473.41,276.78h60.41l14.39,40.72h29.21L518.33,162.59H489.57L430,317.5h29.43Zm21-60.63c3.32-9.74,6-17.26,8.86-28.11h.22c2.43,9.3,6.19,19.92,9.07,28.11l13.06,37.4h-44Z" transform="translate(0)"/><polygon class="c" points="317.84 251.11 385.56 251.11 385.56 317.5 413.22 317.5 413.22 162.59 385.56 162.59 385.56 227.43 317.84 227.43 317.84 162.59 290.18 162.59 290.18 317.5 317.84 317.5 317.84 251.11"/><path class="c" d="M140.37,317.5l21.9-83.21c3.55-14.16,6.2-26.77,8.64-39.61h.44c2.43,12.39,5.75,26.34,9.29,39.17l21.91,83.65h29.88l38.28-154.91h-29l-17,85.42c-3.1,14.83-4.87,26.56-7.08,38.73h-.44c-2.44-12.39-5.09-24.12-8.86-38.73l-22.57-85.42H157.18L135.28,248c-3.32,12.4-6.42,26.56-9.3,38.73h-.44c-2-11.95-2.66-16.82-7.08-38.73L101,162.59H72L110.27,317.5Z" transform="translate(0)"/></g></svg>