<svg height="46" viewBox="0 0 400 46" width="400" xmlns="http://www.w3.org/2000/svg" xmlns:xlink="http://www.w3.org/1999/xlink"><mask id="a" fill="#fff"><path d="m.0001.507h399.999731v45.397h-399.999731z" fill="#fff" fill-rule="evenodd"/></mask><path d="m35.7131 14.026c-.313-3.709-.628-8.488-.628-11.317h-1.383c-.944 1.192-1.51 1.57-3.207 1.57h-24.963c-1.759 0-2.577-.125-3.457-1.57h-1.319c-.127 3.394-.505 7.608-.756 11.504h1.949c.692-2.829 1.321-4.652 2.076-5.72.817-1.383 2.073-1.95 7.293-1.95h3.583v30.744c0 5.032-.503 5.661-6.162 6.038v1.823h18.487v-1.823c-5.91-.377-6.414-1.006-6.414-6.038v-30.744h4.15c4.589 0 5.659.503 6.727 1.886.818 1.069 1.447 2.704 2.138 5.784zm41.874 31.122v-1.698c-3.583-.379-4.023-.692-4.023-4.778v-11.129c0-7.419-3.521-10.688-8.677-10.688-3.334 0-6.664 2.263-8.93 4.463v-20.811c-2.639.754-6.538 1.76-9.619 2.202v1.508c3.961.378 4.151.629 4.151 4.525v29.868c0 4.148-.505 4.461-4.277 4.84v1.698h13.645v-1.698c-3.522-.379-3.9-.817-3.9-4.778v-15.09c1.699-1.886 3.963-2.955 6.227-2.955 3.835 0 5.846 2.39 5.846 7.546v10.499c0 3.961-.44 4.399-3.961 4.778v1.698zm32.946-6.851c-2.263 2.072-4.653 3.078-7.168 3.078-4.401 0-9.117-3.521-9.243-11.756 7.294-.253 15.154-.881 16.159-1.007 1.258-.251 1.51-.816 1.51-2.075.062-4.966-4.213-9.682-9.557-9.682-3.27 0-6.665 1.696-9.305 4.589-2.577 2.765-4.213 6.665-4.213 11.066 0 7.105 4.526 13.394 12.387 13.394 2.074 0 6.475-1.132 10.436-6.226zm-9.745-19.116c3.269 0 5.28 3.082 5.218 6.351 0 .941-.377 1.257-1.445 1.257-3.458.126-6.728.188-10.061.188.817-5.092 3.521-7.796 6.288-7.796zm53.622 15.656c-.94 2.515-2.072 4.652-3.205 5.973-1.383 1.572-3.206 2.074-7.733 2.074-3.02 0-5.221 0-6.414-.754-1.132-.755-1.51-2.201-1.51-5.156v-11.633h5.659c5.47 0 5.974.378 6.792 4.843h1.885v-12.135h-1.885c-.756 4.214-1.196 4.715-6.792 4.715h-5.659v-14.146c0-1.886.19-2.075 2.202-2.075h4.465c4.337 0 6.035.44 6.977 1.823.819 1.259 1.51 2.767 2.076 5.345l1.949-.314c-.252-3.334-.566-7.61-.566-9.118h-28.293v1.824c4.779.44 5.344.691 5.344 6.287v24.837c0 5.155-.565 5.657-6.226 6.098v1.823h30.685c.502-1.95 1.823-7.796 2.137-9.998zm48.151 10.311v-1.698c-3.586-.502-4.528-1.131-6.791-4.653l-6.161-9.367c2.137-3.08 3.648-5.281 4.966-6.854 2.202-2.514 3.02-2.892 6.79-3.269v-1.698h-11.505v1.698c2.705.314 3.08.69 2.012 2.578-1.07 1.886-2.263 3.834-3.521 5.658l-3.584-5.596c-1.132-1.759-.88-2.263 1.696-2.64v-1.698h-12.951v1.698c3.459.441 4.213.942 6.099 3.961l5.471 8.675c-1.823 2.769-3.521 5.284-5.282 7.359-2.39 3.08-3.207 3.646-6.98 4.148v1.698h11.758v-1.698c-3.143-.502-3.333-1.131-2.136-3.207 1.193-2.073 2.514-4.401 3.898-6.412l4.4 7.043c1.069 1.697.567 2.197-2.011 2.576v1.698zm49.104 0v-1.698c-3.583-.379-4.024-.692-4.024-4.778v-11.129c0-7.419-3.519-10.688-8.679-10.688-3.329 0-6.663 2.263-8.926 4.463v-20.811c-2.641.754-6.54 1.76-9.618 2.202v1.508c3.961.378 4.149.629 4.149 4.525v29.868c0 4.148-.505 4.461-4.275 4.84v1.698h13.645v-1.698c-3.523-.379-3.901-.817-3.901-4.778v-15.09c1.698-1.886 3.961-2.955 6.225-2.955 3.836 0 5.848 2.39 5.848 7.546v10.499c0 3.961-.44 4.399-3.96 4.778v1.698zm47.785-2.515-.631-1.699c-.627.318-1.507.632-2.261.632-1.069 0-2.138-.881-2.138-3.712v-11.443c0-3.394-.627-5.972-2.956-7.86-1.382-1.131-3.333-1.696-5.278-1.696-3.587.692-7.799 3.08-9.622 4.4-1.259.944-2.076 1.635-2.076 2.641 0 1.509 1.761 2.768 2.955 2.768 1.006 0 1.7-.44 2.013-1.573.501-1.949 1.068-3.333 1.823-4.211.628-.756 1.573-1.196 2.704-1.196 3.017 0 5.029 2.515 5.029 6.916v1.256c-1.383 1.132-6.035 2.831-9.807 4.151-3.395 1.132-5.031 3.019-5.031 6.163 0 3.896 3.145 7.734 7.733 7.734 1.761 0 4.779-2.264 7.294-3.962.253 1.006.692 1.885 1.51 2.704.691.691 2.013 1.258 3.082 1.258zm-10.438-2.704c-1.131 1.07-3.08 2.013-4.591 2.013-1.883 0-4.337-1.508-4.337-4.779 0-2.326 1.32-3.458 3.647-4.59 1.384-.63 3.961-1.824 5.281-2.515zm55.4 5.219v-1.698c-4.024-.379-4.527-.753-4.527-4.904v-38.039c-2.326.754-6.414 1.824-9.743 2.202v1.508c3.896.378 4.274.565 4.274 4.716v29.613c0 4.151-.505 4.465-4.466 4.904v1.698zm54.33-6.851c-2.263 2.072-4.654 3.078-7.169 3.078-4.4 0-9.117-3.521-9.24-11.756 7.29-.253 15.151-.881 16.156-1.007 1.259-.251 1.51-.816 1.51-2.075.065-4.966-4.212-9.682-9.557-9.682-3.269 0-6.666 1.696-9.305 4.589-2.577 2.765-4.213 6.665-4.213 11.066 0 7.105 4.526 13.394 12.386 13.394 2.075 0 6.477-1.132 10.438-6.226zm-9.746-19.116c3.269 0 5.279 3.082 5.218 6.351 0 .941-.377 1.257-1.444 1.257-3.46.126-6.73.188-10.063.188.82-5.092 3.523-7.796 6.289-7.796z" fill="#252731" fill-rule="evenodd" mask="url(#a)" transform="translate(0 -.5068)"/></svg>