<?xml version="1.0" encoding="UTF-8"?>
<svg width="400px" height="87px" viewBox="0 0 400 87" version="1.1" xmlns="http://www.w3.org/2000/svg" xmlns:xlink="http://www.w3.org/1999/xlink">
    <!-- Generator: Sketch 50.2 (55047) - http://www.bohemiancoding.com/sketch -->
    <title>Artboard 1</title>
    <desc>Created with Sketch.</desc>
    <defs>
        <polygon id="path-1" points="0 87.4932 400 87.4932 400 0.0002 0 0.0002"></polygon>
        <polygon id="path-3" points="0.0001 0.507 399.999831 0.507 399.999831 45.904 0.0001 45.904"></polygon>
    </defs>
    <g id="Artboard-1" stroke="none" stroke-width="1" fill="none" fill-rule="evenodd">
        <path d="M39.4035,81.3444 C40.5165,80.6574 41.7285,78.2924 41.7285,75.8654 C41.7285,74.8554 41.4255,74.4484 41.0615,74.4484 C40.3945,74.4484 38.8175,75.6434 37.5635,77.4434 C37.4425,77.7854 37.3205,78.3534 37.1995,79.0394 C36.8155,81.0824 37.6045,81.6494 38.3925,81.6494 C38.7165,81.6494 39.1005,81.5274 39.4035,81.3444 Z M36.2505,68.6664 C37.9075,68.4854 39.0605,67.9794 39.3825,67.9794 C39.5865,67.9794 39.6065,68.1814 39.5055,68.6074 C38.8385,71.2954 38.3125,73.6424 37.7465,76.2084 L37.7865,76.2084 C39.4855,74.1474 41.1425,73.2374 42.0925,73.2374 C43.0035,73.2374 43.5695,74.1474 43.5695,75.5004 C43.5695,77.7264 42.2555,80.2534 40.4755,81.4464 C39.2615,82.2764 38.1305,82.5784 37.3405,82.5784 C36.6335,82.5784 35.9665,82.1954 35.6635,81.6904 C35.3405,81.1844 35.2785,80.4554 35.5425,79.1614 C36.1085,76.3904 36.7755,73.4184 37.4425,70.1824 C37.6245,69.2734 37.5445,69.2124 36.7955,69.1934 L36.2095,69.1934 L36.2505,68.6664 Z" id="Fill-4" fill="#252731"></path>
        <path d="M48.7707,80.7389 C49.6807,79.3639 51.3997,76.7959 51.3997,75.3199 C51.3997,74.8949 51.2577,74.5919 51.1577,74.3479 C51.0967,74.1869 51.1167,73.9849 51.1987,73.8029 C51.3597,73.4789 51.7437,73.2359 52.0877,73.2359 C52.5527,73.2359 52.9367,73.6799 52.9367,74.3889 C52.9577,74.9559 52.7347,75.6639 52.2087,76.5519 C51.3397,78.1099 49.7217,80.5969 48.6297,82.1349 C47.4367,83.8529 46.1427,85.6109 44.9497,86.9259 L42.7457,87.4929 L42.5837,87.0269 C44.7487,85.6109 46.2637,83.9939 47.2947,82.6189 C47.2747,81.0219 46.9317,77.8269 46.6487,75.9869 C46.5067,75.0149 46.3857,74.7949 46.2237,74.7949 C46.0617,74.7949 45.5767,75.2179 45.0717,75.9469 L44.7077,75.4629 C45.3937,74.3889 46.4257,73.2359 47.1947,73.2359 C47.7807,73.2359 48.1047,73.9849 48.2867,75.6829 C48.4887,77.2189 48.6297,78.9389 48.7317,80.7389 L48.7707,80.7389 Z" id="Fill-6" fill="#252731"></path>
        <path d="M81.4035,76.2018 L86.4355,76.2018 L86.4355,77.4508 C86.4355,80.4308 84.6045,82.3828 81.6425,82.3828 C78.4085,82.3828 76.4565,79.9848 76.4565,77.0228 C76.4565,74.0618 78.4425,71.6648 81.6775,71.6648 C84.2615,71.6648 85.3745,72.9668 85.3745,72.9668 L84.1255,74.5578 C84.1255,74.5578 83.2685,73.6508 81.6605,73.6508 C79.8445,73.6508 78.5955,75.0728 78.5955,77.0228 C78.5955,78.9738 79.8285,80.4118 81.6425,80.4118 C83.2005,80.4118 84.1075,79.4028 84.1595,78.0338 L84.1595,77.8968 L81.4035,77.8968 L81.4035,76.2018 Z" id="Fill-8" fill="#252731"></path>
        <polygon id="Fill-10" fill="#252731" points="103.76 75.5514 101.877 82.1574 100.268 82.1574 97.135 71.8884 99.377 71.8884 101.09 78.2894 102.939 71.8884 104.582 71.8884 106.448 78.3074 108.177 71.8884 110.436 71.8884 107.304 82.1574 105.711 82.1574"></polygon>
        <polygon id="Fill-12" fill="#252731" points="128.632 77.7946 124.148 77.7946 124.148 80.3436 129.471 80.3436 129.471 82.1586 122.076 82.1586 122.076 71.8886 129.471 71.8886 129.471 73.7026 124.148 73.7026 124.148 76.1166 128.632 76.1166"></polygon>
        <polygon id="Fill-14" fill="#252731" points="150.6291 82.1588 149.0371 82.1588 143.6111 75.4988 143.6111 82.1588 141.5401 82.1588 141.5401 71.8878 143.1321 71.8878 148.5581 78.4778 148.5581 71.8878 150.6291 71.8878"></polygon>
        <path d="M165.299,73.7018 L165.299,80.3448 L166.874,80.3448 C168.739,80.3448 170.212,79.1108 170.212,77.0228 C170.212,74.8658 168.739,73.7018 166.874,73.7018 L165.299,73.7018 Z M167.011,82.1588 L163.228,82.1588 L163.228,71.8898 L167.011,71.8898 C170.264,71.8898 172.352,74.0118 172.352,77.0228 C172.352,80.0358 170.264,82.1588 167.011,82.1588 Z" id="Fill-16" fill="#252731"></path>
        <path d="M192.0383,77.0231 C192.0383,75.0731 190.7543,73.6511 188.9563,73.6511 C187.1933,73.6511 185.9103,75.0731 185.9103,77.0231 C185.9103,78.9751 187.1933,80.3961 188.9563,80.3961 C190.7543,80.3961 192.0383,78.9751 192.0383,77.0231 M183.7533,77.0231 C183.7533,74.0621 185.8583,71.6661 188.9563,71.6661 C192.0893,71.6661 194.1783,74.0621 194.1783,77.0231 C194.1783,79.9851 192.0893,82.3981 188.9563,82.3981 C185.8583,82.3981 183.7533,79.9851 183.7533,77.0231" id="Fill-18" fill="#252731"></path>
        <polygon id="Fill-20" fill="#252731" points="206.1765 82.1588 206.1765 71.8878 208.2485 71.8878 208.2485 80.3438 213.0755 80.3438 213.0755 82.1588"></polygon>
        <polygon id="Fill-22" fill="#252731" points="229.3034 71.8883 231.5804 71.8883 227.9164 78.1703 227.9164 82.1593 225.8454 82.1593 225.8454 78.2043 222.1814 71.8883 224.4444 71.8883 226.4804 75.4643 226.8894 76.4083 227.3014 75.4643"></polygon>
        <polygon id="Fill-24" fill="#252731" points="252.0358 82.1588 250.4438 82.1588 245.0158 75.4988 245.0158 82.1588 242.9458 82.1588 242.9458 71.8878 244.5378 71.8878 249.9648 78.4778 249.9648 71.8878 252.0358 71.8878"></polygon>
        <polygon id="Fill-26" fill="#252731" points="286.5114 75.7223 283.9094 79.1453 283.0884 79.1453 280.4884 75.7223 280.4884 82.1593 278.4324 82.1593 278.4324 71.8893 280.0764 71.8893 283.4994 76.4923 286.9234 71.8893 288.5494 71.8893 288.5674 82.1593 286.5114 82.1593"></polygon>
        <path d="M303.5104,78.4957 L306.7114,78.4957 L305.1044,74.1827 L303.5104,78.4957 Z M310.2724,82.1587 L308.0654,82.1587 L307.3274,80.1737 L302.8954,80.1737 L302.1574,82.1587 L299.9484,82.1587 L304.0244,71.8897 L306.1984,71.8897 L310.2724,82.1587 Z" id="Fill-28" fill="#252731"></path>
        <path d="M322.0661,79.4889 C322.0661,79.4889 323.3841,80.4809 324.9431,80.4809 C326.0401,80.4809 326.5181,80.0199 326.5181,79.3349 C326.5181,78.6669 326.1261,78.3229 324.4641,77.8289 C322.2401,77.1759 321.0761,76.3559 321.0761,74.7129 C321.0761,72.9159 322.3771,71.6659 324.9261,71.6659 C327.5961,71.6659 328.6391,72.7269 328.6391,72.7269 L327.5281,74.4219 C327.5281,74.4219 326.5021,73.5659 324.9261,73.5659 C323.9171,73.5659 323.4031,73.9599 323.4031,74.5929 C323.4031,75.2099 323.9171,75.4829 325.3721,75.9259 C327.7521,76.5939 328.8971,77.4859 328.8971,79.1459 C328.8971,80.9429 327.6481,82.3819 325.0111,82.3819 C322.2911,82.3819 320.9361,81.0629 320.9361,81.0629 L322.0661,79.4889 Z" id="Fill-30" fill="#252731"></path>
        <mask id="mask-2" fill="white">
            <use xlink:href="#path-1"></use>
        </mask>
        <g id="Clip-33"></g>
        <polygon id="Fill-32" fill="#252731" mask="url(#mask-2)" points="340.847 82.1582 342.916 82.1582 342.916 71.8882 340.847 71.8882"></polygon>
        <polygon id="Fill-34" fill="#252731" mask="url(#mask-2)" points="364.6227 82.1588 363.0307 82.1588 357.6027 75.4988 357.6027 82.1588 355.5327 82.1588 355.5327 71.8878 357.1247 71.8878 362.5517 78.4778 362.5517 71.8878 364.6227 71.8878"></polygon>
        <g id="Group-3" mask="url(#mask-2)">
            <g transform="translate(0.000000, -0.506800)">
                <mask id="mask-4" fill="white">
                    <use xlink:href="#path-3"></use>
                </mask>
                <g id="Clip-2" stroke="none" fill="none"></g>
                <path d="M35.7131,14.026 C35.4001,10.317 35.0851,5.538 35.0851,2.709 L33.7021,2.709 C32.7581,3.901 32.1921,4.279 30.4951,4.279 L5.5321,4.279 C3.7731,4.279 2.9551,4.154 2.0751,2.709 L0.7561,2.709 C0.6291,6.103 0.2511,10.317 0.0001,14.213 L1.9491,14.213 C2.6411,11.384 3.2701,9.561 4.0251,8.493 C4.8421,7.11 6.0981,6.543 11.3181,6.543 L14.9011,6.543 L14.9011,37.287 C14.9011,42.319 14.3981,42.948 8.7391,43.325 L8.7391,45.148 L27.2261,45.148 L27.2261,43.325 C21.3161,42.948 20.8121,42.319 20.8121,37.287 L20.8121,6.543 L24.9621,6.543 C29.5511,6.543 30.6211,7.046 31.6891,8.429 C32.5071,9.498 33.1361,11.133 33.8271,14.213 L35.7131,14.026 Z M77.5871,45.148 L77.5871,43.45 C74.0041,43.071 73.5641,42.758 73.5641,38.672 L73.5641,27.543 C73.5641,20.124 70.0431,16.855 64.8871,16.855 C61.5531,16.855 58.2231,19.118 55.9571,21.318 L55.9571,0.507 C53.3181,1.261 49.4191,2.267 46.3381,2.709 L46.3381,4.217 C50.2991,4.595 50.4891,4.846 50.4891,8.742 L50.4891,38.61 C50.4891,42.758 49.9841,43.071 46.2121,43.45 L46.2121,45.148 L59.8571,45.148 L59.8571,43.45 C56.3351,43.071 55.9571,42.633 55.9571,38.672 L55.9571,23.582 C57.6561,21.696 59.9201,20.627 62.1841,20.627 C66.0191,20.627 68.0301,23.017 68.0301,28.173 L68.0301,38.672 C68.0301,42.633 67.5901,43.071 64.0691,43.45 L64.0691,45.148 L77.5871,45.148 Z M110.5331,38.297 C108.2701,40.369 105.8801,41.375 103.3651,41.375 C98.9641,41.375 94.2481,37.854 94.1221,29.619 C101.4161,29.366 109.2761,28.738 110.2811,28.612 C111.5391,28.361 111.7911,27.796 111.7911,26.537 C111.8531,21.571 107.5781,16.855 102.2341,16.855 C98.9641,16.855 95.5691,18.551 92.9291,21.444 C90.3521,24.209 88.7161,28.109 88.7161,32.51 C88.7161,39.615 93.2421,45.904 101.1031,45.904 C103.1771,45.904 107.5781,44.772 111.5391,39.678 L110.5331,38.297 Z M100.7881,19.181 C104.0571,19.181 106.0681,22.263 106.0061,25.532 C106.0061,26.473 105.6291,26.789 104.5611,26.789 C101.1031,26.915 97.8331,26.977 94.5001,26.977 C95.3171,21.885 98.0211,19.181 100.7881,19.181 Z M154.4101,34.837 C153.4701,37.352 152.3381,39.489 151.2051,40.81 C149.8221,42.382 147.9991,42.884 143.4721,42.884 C140.4521,42.884 138.2511,42.884 137.0581,42.13 C135.9261,41.375 135.5481,39.929 135.5481,36.974 L135.5481,25.341 L141.2071,25.341 C146.6771,25.341 147.1811,25.719 147.9991,30.184 L149.8841,30.184 L149.8841,18.049 L147.9991,18.049 C147.2431,22.263 146.8031,22.764 141.2071,22.764 L135.5481,22.764 L135.5481,8.618 C135.5481,6.732 135.7381,6.543 137.7501,6.543 L142.2151,6.543 C146.5521,6.543 148.2501,6.983 149.1921,8.366 C150.0111,9.625 150.7021,11.133 151.2681,13.711 L153.2171,13.397 C152.9651,10.063 152.6511,5.787 152.6511,4.279 L124.3581,4.279 L124.3581,6.103 C129.1371,6.543 129.7021,6.794 129.7021,12.39 L129.7021,37.227 C129.7021,42.382 129.1371,42.884 123.4761,43.325 L123.4761,45.148 L154.1611,45.148 C154.6631,43.198 155.9841,37.352 156.2981,35.15 L154.4101,34.837 Z M202.5611,45.148 L202.5611,43.45 C198.9751,42.948 198.0331,42.319 195.7701,38.797 L189.6091,29.43 C191.7461,26.35 193.2571,24.149 194.5751,22.576 C196.7771,20.062 197.5951,19.684 201.3651,19.307 L201.3651,17.609 L189.8601,17.609 L189.8601,19.307 C192.5651,19.621 192.9401,19.997 191.8721,21.885 C190.8021,23.771 189.6091,25.719 188.3511,27.543 L184.7671,21.947 C183.6351,20.188 183.8871,19.684 186.4631,19.307 L186.4631,17.609 L173.5121,17.609 L173.5121,19.307 C176.9711,19.748 177.7251,20.249 179.6111,23.268 L185.0821,31.943 C183.2591,34.712 181.5611,37.227 179.8001,39.302 C177.4101,42.382 176.5931,42.948 172.8201,43.45 L172.8201,45.148 L184.5781,45.148 L184.5781,43.45 C181.4351,42.948 181.2451,42.319 182.4421,40.243 C183.6351,38.17 184.9561,35.842 186.3401,33.831 L190.7401,40.874 C191.8091,42.571 191.3071,43.071 188.7291,43.45 L188.7291,45.148 L202.5611,45.148 Z M251.6651,45.148 L251.6651,43.45 C248.0821,43.071 247.6411,42.758 247.6411,38.672 L247.6411,27.543 C247.6411,20.124 244.1221,16.855 238.9621,16.855 C235.6331,16.855 232.2991,19.118 230.0361,21.318 L230.0361,0.507 C227.3951,1.261 223.4961,2.267 220.4181,2.709 L220.4181,4.217 C224.3791,4.595 224.5671,4.846 224.5671,8.742 L224.5671,38.61 C224.5671,42.758 224.0621,43.071 220.2921,43.45 L220.2921,45.148 L233.9371,45.148 L233.9371,43.45 C230.4141,43.071 230.0361,42.633 230.0361,38.672 L230.0361,23.582 C231.7341,21.696 233.9971,20.627 236.2611,20.627 C240.0971,20.627 242.1091,23.017 242.1091,28.173 L242.1091,38.672 C242.1091,42.633 241.6691,43.071 238.1491,43.45 L238.1491,45.148 L251.6651,45.148 Z M299.4501,42.633 L298.8191,40.934 C298.1921,41.252 297.3121,41.566 296.5581,41.566 C295.4891,41.566 294.4201,40.685 294.4201,37.854 L294.4201,26.411 C294.4201,23.017 293.7931,20.439 291.4641,18.551 C290.0821,17.42 288.1311,16.855 286.1861,16.855 C282.5991,17.547 278.3871,19.935 276.5641,21.255 C275.3051,22.199 274.4881,22.89 274.4881,23.896 C274.4881,25.405 276.2491,26.664 277.4431,26.664 C278.4491,26.664 279.1431,26.224 279.4561,25.091 C279.9571,23.142 280.5241,21.758 281.2791,20.88 C281.9071,20.124 282.8521,19.684 283.9831,19.684 C287.0001,19.684 289.0121,22.199 289.0121,26.6 L289.0121,27.856 C287.6291,28.988 282.9771,30.687 279.2051,32.007 C275.8101,33.139 274.1741,35.026 274.1741,38.17 C274.1741,42.066 277.3191,45.904 281.9071,45.904 C283.6681,45.904 286.6861,43.64 289.2011,41.942 C289.4541,42.948 289.8931,43.827 290.7111,44.646 C291.4021,45.337 292.7241,45.904 293.7931,45.904 L299.4501,42.633 Z M289.0121,39.929 C287.8811,40.999 285.9321,41.942 284.4211,41.942 C282.5381,41.942 280.0841,40.434 280.0841,37.163 C280.0841,34.837 281.4041,33.705 283.7311,32.573 C285.1151,31.943 287.6921,30.749 289.0121,30.058 L289.0121,39.929 Z M344.4121,45.148 L344.4121,43.45 C340.3881,43.071 339.8851,42.697 339.8851,38.546 L339.8851,0.507 C337.5591,1.261 333.4711,2.331 330.1421,2.709 L330.1421,4.217 C334.0381,4.595 334.4161,4.782 334.4161,8.933 L334.4161,38.546 C334.4161,42.697 333.9111,43.011 329.9501,43.45 L329.9501,45.148 L344.4121,45.148 Z M398.7421,38.297 C396.4791,40.369 394.0881,41.375 391.5731,41.375 C387.1731,41.375 382.4561,37.854 382.3331,29.619 C389.6231,29.366 397.4841,28.738 398.4891,28.612 C399.7481,28.361 399.9991,27.796 399.9991,26.537 C400.0641,21.571 395.7871,16.855 390.4421,16.855 C387.1731,16.855 383.7761,18.551 381.1371,21.444 C378.5601,24.209 376.9241,28.109 376.9241,32.51 C376.9241,39.615 381.4501,45.904 389.3101,45.904 C391.3851,45.904 395.7871,44.772 399.7481,39.678 L398.7421,38.297 Z M388.9961,19.181 C392.2651,19.181 394.2751,22.263 394.2141,25.532 C394.2141,26.473 393.8371,26.789 392.7701,26.789 C389.3101,26.915 386.0401,26.977 382.7071,26.977 C383.5271,21.885 386.2301,19.181 388.9961,19.181 Z" id="Fill-1" stroke="none" fill="#252731" fill-rule="evenodd" mask="url(#mask-4)"></path>
            </g>
        </g>
    </g>
</svg>