<svg height="47" viewBox="0 0 217 47" width="217" xmlns="http://www.w3.org/2000/svg" xmlns:xlink="http://www.w3.org/1999/xlink"><mask id="a" fill="#fff"><path d="m0 .527h217.039v24.6318h-217.039z" fill="#fff" fill-rule="evenodd"/></mask><mask id="b" fill="#fff"><path d="m.1062.2644h5.6176852v7.7356h-5.6176852z" fill="#fff" fill-rule="evenodd"/></mask><mask id="c" fill="#fff"><path d="m0 47.4732h217.039v-47.473h-217.039z" fill="#fff" fill-rule="evenodd"/></mask><g fill="#f0ece5" fill-rule="evenodd"><path d="m19.3777 7.8618c-.17-2.013-.341-4.605-.341-6.141h-.75c-.513.648-.82.853-1.74.853h-13.545c-.955 0-1.398-.068-1.876-.853h-.716c-.068 1.842-.273 4.128-.41 6.243h1.058c.375-1.536.716-2.525 1.126-3.104.444-.751 1.125-1.059 3.957-1.059h1.945v16.683c0 2.731-.274 3.071-3.344 3.275v.99h10.031v-.99c-3.207-.204-3.48-.544-3.48-3.275v-16.683h2.252c2.49 0 3.07.274 3.649 1.024.444.581.786 1.468 1.161 3.139zm22.721 16.887v-.921c-1.945-.206-2.183-.376-2.183-2.593v-6.039c0-4.025-1.911-5.799-4.708-5.799-1.809 0-3.616 1.229-4.846 2.422v-11.292c-1.432.409-3.547.955-5.219 1.194v.819c2.15.205 2.253.342 2.253 2.456v16.206c0 2.25-.274 2.42-2.321 2.626v.921h7.403v-.921c-1.911-.206-2.116-.444-2.116-2.593v-8.187c.923-1.024 2.151-1.604 3.379-1.604 2.08 0 3.172 1.297 3.172 4.095v5.696c0 2.149-.239 2.387-2.149 2.593v.921zm17.876-3.718c-1.228 1.125-2.524 1.671-3.889 1.671-2.388 0-4.947-1.91-5.016-6.379 3.958-.138 8.223-.478 8.768-.546.683-.137.82-.443.82-1.126.033-2.695-2.286-5.254-5.186-5.254-1.774 0-3.616.921-5.049 2.49-1.399 1.5-2.286 3.617-2.286 6.004 0 3.856 2.456 7.268 6.721 7.268 1.126 0 3.514-.614 5.663-3.378zm-5.287-10.372c1.773 0 2.865 1.673 2.831 3.446 0 .511-.205.682-.785.682-1.876.069-3.65.102-5.459.102.444-2.762 1.911-4.23 3.413-4.23zm29.095 8.495c-.51 1.364-1.125 2.524-1.739 3.241-.75.853-1.74 1.126-4.196 1.126-1.638 0-2.833 0-3.48-.409-.615-.41-.82-1.195-.82-2.799v-6.311h3.071c2.968 0 3.241.205 3.685 2.628h1.023v-6.585h-1.023c-.41 2.287-.649 2.558-3.685 2.558h-3.071v-7.676c0-1.023.103-1.126 1.195-1.126h2.423c2.353 0 3.275.24 3.786.991.444.682.819 1.501 1.126 2.899l1.057-.171c-.136-1.808-.307-4.128-.307-4.946h-15.351v.989c2.592.238 2.9.375 2.9 3.411v13.477c0 2.797-.308 3.07-3.379 3.308v.99h16.65c.272-1.058.989-4.231 1.159-5.425zm26.126 5.595v-.921c-1.946-.273-2.456-.613-3.685-2.525l-3.343-5.083c1.16-1.671 1.98-2.866 2.695-3.718 1.195-1.365 1.639-1.57 3.684-1.774v-.922h-6.242v.922c1.467.17 1.671.374 1.091 1.399-.58 1.023-1.228 2.08-1.91 3.069l-1.945-3.036c-.614-.954-.477-1.228.921-1.432v-.922h-7.028v.922c1.877.238 2.286.511 3.31 2.149l2.968 4.708c-.989 1.502-1.91 2.866-2.866 3.992-1.297 1.671-1.74 1.978-3.787 2.251v.921h6.38v-.921c-1.706-.273-1.809-.613-1.16-1.74.648-1.125 1.365-2.389 2.115-3.48l2.389 3.821c.579.921.307 1.193-1.092 1.399v.921zm26.644 0v-.921c-1.944-.206-2.184-.376-2.184-2.593v-6.039c0-4.025-1.909-5.799-4.708-5.799-1.806 0-3.615 1.229-4.844 2.422v-11.292c-1.433.409-3.548.955-5.218 1.194v.819c2.149.205 2.25.342 2.25 2.456v16.206c0 2.25-.274 2.42-2.319 2.626v.921h7.404v-.921c-1.911-.206-2.117-.444-2.117-2.593v-8.187c.921-1.024 2.149-1.604 3.378-1.604 2.081 0 3.173 1.297 3.173 4.095v5.696c0 2.149-.239 2.387-2.149 2.593v.921zm25.928-1.365-.342-.921c-.341.171-.819.342-1.227.342-.58 0-1.16-.478-1.16-2.013v-6.21c0-1.841-.341-3.24-1.603-4.264-.751-.614-1.81-.921-2.866-.921-1.946.375-4.231 1.671-5.22 2.388-.683.512-1.126.887-1.126 1.432 0 .82.956 1.502 1.604 1.502.545 0 .921-.239 1.091-.853.272-1.058.579-1.809.99-2.285.34-.41.853-.649 1.466-.649 1.638 0 2.729 1.365 2.729 3.752v.683c-.75.613-3.274 1.535-5.321 2.252-1.843.614-2.729 1.638-2.729 3.344 0 2.114 1.706 4.196 4.195 4.196.956 0 2.593-1.229 3.958-2.15.137.546.375 1.023.819 1.467.375.375 1.092.683 1.672.683zm-5.664-1.467c-.613.581-1.671 1.092-2.49 1.092-1.022 0-2.354-.818-2.354-2.593 0-1.262.717-1.876 1.979-2.491.751-.34 2.149-.989 2.865-1.364zm30.061 2.832v-.921c-2.185-.206-2.458-.408-2.458-2.661v-20.64c-1.262.409-3.48.989-5.286 1.194v.819c2.114.205 2.319.306 2.319 2.559v16.068c0 2.253-.273 2.423-2.423 2.661v.921zm29.479-3.718c-1.229 1.125-2.525 1.671-3.89 1.671-2.387 0-4.947-1.91-5.014-6.379 3.956-.138 8.221-.478 8.766-.546.683-.137.82-.443.82-1.126.034-2.695-2.286-5.254-5.186-5.254-1.773 0-3.617.921-5.049 2.49-1.399 1.5-2.285 3.617-2.285 6.004 0 3.856 2.455 7.268 6.719 7.268 1.126 0 3.515-.614 5.664-3.378zm-5.289-10.372c1.774 0 2.865 1.673 2.832 3.446 0 .511-.205.682-.784.682-1.878.069-3.651.102-5.46.102.445-2.762 1.911-4.23 3.412-4.23z" mask="url(#a)" transform="translate(0 -.5268)"/><path d="m21.3801 44.1367c.604-.372 1.262-1.655 1.262-2.973 0-.548-.164-.768-.362-.768-.362 0-1.218.647-1.899 1.624-.065.186-.131.494-.197.867-.208 1.108.219 1.416.648 1.416.175 0 .384-.066.548-.166zm-1.711-6.878c.899-.1 1.525-.374 1.7-.374.11 0 .121.11.066.341-.362 1.459-.647 2.732-.954 4.125h.022c.921-1.119 1.821-1.613 2.336-1.613.494 0 .801.494.801 1.228 0 1.208-.713 2.579-1.678 3.227-.659.45-1.273.614-1.701.614-.384 0-.746-.208-.911-.483-.175-.274-.208-.668-.065-1.371.307-1.504.669-3.116 1.031-4.872.099-.494.055-.526-.352-.537h-.317z"/><path d="m3.4632 4.3354c.494-.746 1.426-2.141 1.426-2.94 0-.231-.076-.396-.132-.528-.032-.087-.022-.197.023-.296.087-.175.296-.307.482-.307.253 0 .461.241.461.626.011.306-.11.691-.395 1.174-.471.844-1.349 2.194-1.942 3.028-.647.932-1.349 1.887-1.997 2.6l-1.196.308-.087-.253c1.174-.768 1.997-1.645 2.556-2.391-.011-.868-.198-2.601-.351-3.599-.077-.527-.142-.648-.23-.648s-.351.23-.626.625l-.197-.262c.372-.582.933-1.208 1.35-1.208.317 0 .493.406.591 1.328.111.834.187 1.766.242 2.743z" mask="url(#b)" transform="translate(23 39.4732)"/><path d="m44.1692 41.3467h2.73v.678c0 1.616-.993 2.676-2.6 2.676-1.755 0-2.815-1.301-2.815-2.909 0-1.606 1.078-2.906 2.833-2.906 1.403 0 2.006.705 2.006.705l-.677.864s-.465-.492-1.338-.492c-.984 0-1.662.772-1.662 1.829 0 1.06.669 1.839 1.653 1.839.845 0 1.337-.548 1.365-1.29v-.074h-1.495z"/><path d="m56.2996 40.9932-1.021 3.586h-.874l-1.699-5.573h1.217l.928 3.473 1.003-3.473h.892l1.012 3.483.939-3.483h1.226l-1.7 5.573h-.864z"/><path d="m69.7952 42.211h-2.433v1.383h2.889v.985h-4.013v-5.573h4.013v.984h-2.889v1.31h2.433z"/><path d="m81.7312 44.5791h-.864l-2.944-3.613v3.613h-1.124v-5.573h.864l2.944 3.576v-3.576h1.124z"/><path d="m89.6907 39.9903v3.604h.855c1.012 0 1.811-.668 1.811-1.802 0-1.17-.799-1.802-1.811-1.802zm.929 4.589h-2.053v-5.573h2.053c1.765 0 2.898 1.152 2.898 2.786 0 1.635-1.133 2.787-2.898 2.787z"/><path d="m104.199 41.792c0-1.058-.696-1.829-1.672-1.829-.956 0-1.653.771-1.653 1.829 0 1.06.697 1.83 1.653 1.83.976 0 1.672-.77 1.672-1.83m-4.495 0c0-1.606 1.142-2.906 2.823-2.906 1.7 0 2.833 1.3 2.833 2.906 0 1.607-1.133 2.917-2.833 2.917-1.681 0-2.823-1.31-2.823-2.917"/><path d="m111.8714 44.5791v-5.573h1.124v4.588h2.619v.985z"/><path d="m124.4197 39.0059h1.235l-1.988 3.409v2.164h-1.123v-2.145l-1.988-3.428h1.226l1.105 1.941.223.511.224-.511z"/><path d="m136.7542 44.5791h-.864l-2.945-3.613v3.613h-1.123v-5.573h.864l2.943 3.576v-3.576h1.125z"/><path d="m155.4607 41.086-1.412 1.858h-.446l-1.411-1.858v3.493h-1.115v-5.573h.892l1.858 2.498 1.857-2.498h.882l.009 5.573h-1.114z"/><path d="m164.6843 42.5918h1.736l-.872-2.341zm3.668 1.987h-1.198l-.399-1.078h-2.406l-.399 1.078h-1.199l2.211-5.573h1.18z"/><path d="m174.7522 43.1299s.716.538 1.561.538c.594 0 .855-.25.855-.622 0-.361-.214-.548-1.115-.816-1.207-.354-1.839-.8-1.839-1.691 0-.975.706-1.653 2.09-1.653 1.448 0 2.015.575 2.015.575l-.604.92s-.557-.465-1.411-.465c-.549 0-.826.214-.826.558 0 .335.277.483 1.067.723 1.291.363 1.914.846 1.914 1.747 0 .975-.678 1.756-2.109 1.756-1.477 0-2.211-.716-2.211-.716z"/><path d="m184.941 44.5792h1.124v-5.573h-1.124z" mask="url(#c)"/><path d="m197.8435 44.5791h-.864l-2.945-3.613v3.613h-1.123v-5.573h.864l2.943 3.576v-3.576h1.125z" mask="url(#c)"/></g></svg>