<?xml version="1.0" standalone="no"?>
<!DOCTYPE svg PUBLIC "-//W3C//DTD SVG 20010904//EN"
 "http://www.w3.org/TR/2001/REC-SVG-20010904/DTD/svg10.dtd">
<svg version="1.0" xmlns="http://www.w3.org/2000/svg"
 width="2083.000000pt" height="2083.000000pt" viewBox="0 0 2083.000000 2083.000000"
 preserveAspectRatio="xMidYMid meet">
<metadata>
Created by potrace 1.11, written by Peter Selinger 2001-2013
</metadata>
<g transform="translate(0.000000,2083.000000) scale(0.100000,-0.100000)"
fill="#000000" stroke="none">
<path d="M10030 20827 c-3 -2 -75 -7 -160 -11 -140 -6 -318 -18 -440 -31 -139
-14 -179 -18 -325 -36 -1360 -168 -2705 -621 -3900 -1313 l-140 -81 110 -2
c933 -19 1538 -90 2095 -248 908 -257 1537 -741 1885 -1450 90 -183 133 -294
185 -473 67 -229 112 -470 142 -762 19 -188 16 -755 -5 -950 -51 -457 -149
-816 -317 -1155 -136 -275 -269 -463 -470 -666 -557 -560 -1393 -880 -2570
-983 -397 -35 -532 -38 -1757 -43 l-1243 -5 0 -2084 0 -2084 -975 0 -975 0 -1
3383 -1 3382 -107 -215 c-611 -1230 -977 -2643 -1048 -4040 -15 -298 -7 -1169
12 -1291 2 -13 6 -64 10 -114 35 -503 145 -1166 280 -1700 800 -3149 3021
-5745 6012 -7026 1091 -467 2273 -745 3479 -816 275 -17 1206 -8 1414 12 25 3
142 14 260 26 1085 104 2201 403 3215 861 526 238 987 493 1485 823 1484 984
2698 2343 3511 3930 594 1161 967 2422 1088 3685 12 118 23 235 26 260 20 208
29 1139 12 1414 -55 931 -224 1810 -516 2686 -251 751 -553 1406 -965 2089
-47 79 -85 145 -83 147 1 2 155 32 341 68 187 36 340 67 341 68 8 8 -120 406
-182 568 -441 1151 -1270 2010 -2386 2474 -468 195 -942 313 -1497 376 -96 10
-227 22 -290 25 l-115 6 55 -32 c530 -309 929 -576 1315 -878 845 -663 1610
-1481 2206 -2361 108 -160 203 -310 198 -313 -2 -2 -293 -59 -647 -126 -353
-68 -651 -125 -661 -128 -16 -4 -22 5 -35 54 -166 590 -424 1070 -770 1431
-551 573 -1284 832 -2218 784 -445 -23 -777 -82 -1107 -197 -831 -290 -1368
-866 -1681 -1805 -208 -623 -302 -1353 -287 -2235 4 -192 11 -415 17 -495 75
-1040 286 -1738 699 -2312 441 -613 1086 -948 2025 -1053 454 -51 965 -39
1346 31 388 71 750 213 1045 409 269 179 498 409 682 685 276 415 451 971 508
1618 l6 72 -1605 0 -1606 0 0 835 0 835 2555 0 2555 0 0 -2950 0 -2950 -820 0
c-678 0 -820 2 -820 13 0 34 -121 1411 -124 1414 -2 2 -30 -33 -62 -79 -202
-290 -493 -584 -779 -790 -558 -400 -1233 -640 -2030 -725 -132 -14 -253 -17
-540 -17 -399 0 -601 13 -940 60 -2061 288 -3444 1538 -3955 3575 -159 634
-224 1211 -224 1979 -1 511 18 788 80 1190 117 757 351 1453 686 2038 356 622
859 1168 1428 1549 647 433 1355 695 2210 817 315 45 535 60 922 60 197 1 358
2 358 3 0 9 -492 258 -700 353 -1029 472 -2208 790 -3300 890 -63 6 -133 12
-155 15 -22 2 -87 7 -145 10 -58 4 -121 9 -140 12 -45 6 -974 16 -980 10z"/>
<path d="M1170 17288 c0 -1134 2 -2059 4 -2057 2 2 45 80 96 173 714 1313
1745 2494 2961 3393 206 153 574 401 771 520 l53 32 -1942 1 -1943 0 0 -2062z"/>
<path d="M3120 15980 l0 -1801 1248 4 c813 3 1289 8 1367 16 424 39 670 91
917 191 199 81 324 163 471 308 239 235 378 569 418 1005 15 164 7 534 -15
686 -120 817 -583 1233 -1501 1345 -286 36 -386 38 -1642 43 l-1263 5 0 -1802z"/>
</g>
</svg>
